<svg width="138" height="137" viewBox="0 0 138 137" xmlns="http://www.w3.org/2000/svg"><path d="M9.085 124L13 137H9.04l-.594-2.221h-3.98L3.89 137H0l3.862-13h5.223zm12.275 0c1.069 0 1.994.163 2.78.49.788.326 1.397.801 1.827 1.427.43.626.645 1.377.645 2.253 0 .967-.265 1.778-.796 2.435-.532.655-1.318 1.085-2.36 1.291L27 137h-4.673l-3.337-5.041V137H15v-13h6.36zM40 124v3.563h-3.908V137h-4.175v-9.437H28V124h12zm12.983 0c1.527 0 2.817.264 3.865.793 1.05.529 1.837 1.27 2.362 2.22.526.954.79 2.064.79 3.333 0 1.287-.27 2.433-.812 3.436-.542 1.003-1.354 1.79-2.436 2.36-1.082.573-2.404.858-3.963.858H47v-13h5.983zm18.958 0v3.245h-5.817v1.678h5.358v2.847h-5.358v1.985H72V137H62v-13h9.94zm9.33 0l2.748 8.64 2.67-8.64H91l-4.598 13h-4.73L77 124h4.272zM97 124v13h-4v-13h4zm6.273 0l2.746 8.64 2.67-8.64H113l-4.598 13h-4.729L99 124h4.273zm17.087 0c1.069 0 1.994.163 2.78.49.788.326 1.397.801 1.827 1.427.43.626.645 1.377.645 2.253 0 .967-.265 1.778-.796 2.435-.532.655-1.318 1.085-2.36 1.291L126 137h-4.673l-3.337-5.041V137H114v-13h6.36zm17.58 0v3.245h-5.816v1.678h5.358v2.847h-5.358v1.985H138V137h-10v-13h9.94zm-85.142 3.409h-1.696v6.182h1.618c.961 0 1.693-.287 2.189-.861.497-.574.744-1.348.744-2.32 0-.95-.24-1.687-.724-2.212-.484-.527-1.195-.79-2.131-.79zm-46.369-.173l-1.225 4.696h2.478l-1.253-4.696zm14.192-.08h-1.63v2.972h1.44c.62 0 1.087-.133 1.403-.398.316-.266.474-.645.474-1.134 0-.465-.146-.822-.433-1.07-.288-.247-.704-.37-1.254-.37zm99 0h-1.63v2.972h1.44c.62 0 1.087-.133 1.403-.398.316-.266.474-.645.474-1.134 0-.465-.146-.822-.433-1.07-.288-.247-.704-.37-1.254-.37zM124 0v110H13V0h111zM51.703 66.934H18.26v37.823h56.466L51.703 66.934zm67.037-20.352l-34.71 58.175h34.71V46.582zm0-41.34H83.897a28.25 28.25 0 013.157 2.206c7.072 5.74 10.658 14.496 10.658 26.025 0 11.531-3.586 20.287-10.66 26.027-7.502 6.09-17.346 7.465-24.702 7.465-1.686 0-3.218-.077-4.584-.18l21.615 35.507 39.359-65.966V5.242zm-35.009 6.27c-9.206-7.473-23.31-6.492-28.6-5.802v55.525c5.298.685 19.433 1.653 28.617-5.814 5.777-4.696 8.705-12.081 8.705-21.948 0-9.876-2.935-17.264-8.722-21.961zm-65.47.484v49.696h30.25l-30.25-49.696zm31.611-6.754h-29.57l29.57 48.575V5.242z" fill="#FFF" fill-rule="evenodd"/></svg>